<svg width="18" height="17" viewBox="0 0 18 17" fill="none" xmlns="http://www.w3.org/2000/svg">
<path d="M7.88426 0.92705C8.18361 0.00573969 9.48702 0.0057404 9.78637 0.927051L11.1687 5.18134C11.3025 5.59336 11.6865 5.87232 12.1197 5.87232H16.593C17.5617 5.87232 17.9645 7.11193 17.1807 7.68134L13.5618 10.3106C13.2113 10.5653 13.0647 11.0166 13.1986 11.4287L14.5809 15.6829C14.8802 16.6043 13.8257 17.3704 13.042 16.801L9.4231 14.1717C9.07262 13.917 8.59802 13.917 8.24753 14.1717L4.62862 16.801C3.84491 17.3704 2.79043 16.6043 3.08978 15.6829L4.47208 11.4287C4.60595 11.0166 4.4593 10.5653 4.10881 10.3106L0.489897 7.68134C-0.293816 7.11193 0.10896 5.87232 1.07768 5.87232H5.5509C5.98413 5.87232 6.36809 5.59336 6.50196 5.18134L7.88426 0.92705Z" fill="#00AF87"/>
</svg>
